<svg width="24" height="24" viewBox="0 0 24 24" fill="none" xmlns="http://www.w3.org/2000/svg">
<path fill-rule="evenodd" clip-rule="evenodd" d="M21 12.0722C18.2601 12.9604 16.1125 15.1081 15.2242 17.8492C14.3358 15.1081 12.1881 12.9604 9.44825 12.0722C12.1881 11.1838 14.3358 9.03615 15.2242 6.29626C16.1125 9.03615 18.2601 11.1838 21 12.0722Z" stroke="black" stroke-width="1.5" stroke-linecap="round" stroke-linejoin="round"/>
<path fill-rule="evenodd" clip-rule="evenodd" d="M8.86914 5.5688C7.9133 5.87867 7.16407 6.62792 6.85417 7.58418C6.54426 6.62792 5.79501 5.87867 4.83917 5.5688C5.79501 5.25889 6.54426 4.50964 6.85417 3.5538C7.16407 4.50964 7.9133 5.25889 8.86914 5.5688Z" stroke="black" stroke-width="1.5" stroke-linecap="round" stroke-linejoin="round"/>
<path fill-rule="evenodd" clip-rule="evenodd" d="M8.97852 17.4564C7.56051 17.9161 6.44901 19.0276 5.98927 20.4462C5.52952 19.0276 4.418 17.9161 3 17.4564C4.418 16.9966 5.52952 15.8851 5.98927 14.4671C6.44901 15.8851 7.56051 16.9966 8.97852 17.4564Z" stroke="black" stroke-width="1.5" stroke-linecap="round" stroke-linejoin="round"/>
</svg>
